<svg width="144" height="47" viewBox="0 0 144 47" fill="none" xmlns="http://www.w3.org/2000/svg">
<path d="M19.8692 5.69139C15.3731 4.03514 14.5489 7.21874 14.4668 7.90624H14.459V7.99608C14.4551 8.05077 14.4512 8.08593 14.4512 8.08593H14.459C14.9004 9.92577 15.2246 10.7695 19.4707 10.5234C23.627 10.2812 23.7559 8.98827 23.7559 8.98827C23.7559 8.98827 24.1621 7.27343 19.8692 5.69139ZM16.9825 6.75389C16.9825 6.75389 17.5606 5.92968 18.4629 7.05077C18.459 7.05077 17.6426 7.85546 16.9825 6.75389ZM9.33012 40.9336C8.90433 41.1328 7.87308 41.582 6.30668 42.1016C3.55668 43.0117 6.92387 43.0078 6.92387 43.0078C6.92387 43.0078 7.91605 42.9297 9.35746 42.4844L9.33012 40.9336ZM13.7793 15.2344L13.7168 18.8398C15.5489 18.9922 17.0801 19.5195 17.5098 20.793C18.6661 24.2187 12.6153 24.5703 7.70902 26.1992C2.59965 27.8945 3.15824 34.2812 9.23246 35.4375L9.18168 32.5351C9.11918 32.5156 9.05668 32.4922 8.99808 32.4726C8.37308 32.2266 7.79496 31.7851 7.62699 31.3516C7.46293 30.4336 8.24418 29.1094 10.8145 28.5234C15.4825 27.4531 19.4239 26.7617 20.5957 24.5078C23.5684 18.7851 18.3067 15.3125 13.7793 15.2344Z" fill="#25CED1"/>
<path d="M15.2598 6.15234C10.5645 6.44141 1.93558 7.55078 0.404326 12.082C-1.55271 17.8828 4.08401 19.625 6.84573 19.2773C7.4512 19.2031 8.13479 19.1562 8.93558 19.0078L8.87698 15.6914C4.49026 15.8633 3.02933 14.5313 4.67776 12.7031C6.76761 10.3867 11.8809 9.82812 15.1231 9.71484M13.8496 33.2266C13.7129 33.2148 13.5879 33.2031 13.459 33.1914L13.4121 35.7734C14.8223 36.0898 14.3145 36.8672 13.4121 38.0156C13.4004 38.0312 13.3848 38.0469 13.3731 38.0625L13.3262 40.6055C13.6621 40.3828 13.9981 40.1445 14.334 39.8789C15.4942 38.957 15.7598 38.5703 16.4668 37.707C17.5567 36.0547 17.5098 33.5273 13.8496 33.2266Z" fill="#25CED1"/>
<path d="M9.49026 11.1406L9.79495 24.6836C10.8184 24.418 12.0879 24.0742 12.8731 23.8594L13.1739 10.5625C12.2754 10.6484 10.8418 10.8203 9.49026 11.1406ZM11.7168 29.1445C11.7168 29.1445 10.5137 29.3867 9.90823 29.6328L10.2598 45.207C10.2598 46.0391 10.7403 46.707 11.3262 46.707C11.9121 46.707 12.3926 46.1602 12.3926 45.207L12.7598 28.8984L11.7168 29.1445ZM11.2676 0C10.1231 0 9.36526 0.9375 9.36526 2.08594V4.31641L9.40823 6.19531C10.0684 6.05078 11.3145 5.82422 13.3184 5.61328L13.3457 4.32031V2.08984C13.3496 0.9375 12.4121 0 11.2676 0Z" fill="#25CED1"/>
<path d="M43.6354 5.69139C39.1393 4.03514 38.315 7.21874 38.233 7.90624H38.2252V7.99608C38.2213 8.05077 38.2174 8.08593 38.2174 8.08593H38.2252C38.6666 9.92577 38.9908 10.7695 43.2369 10.5234C47.3932 10.2812 47.5221 8.98827 47.5221 8.98827C47.5221 8.98827 47.9283 7.27343 43.6354 5.69139ZM40.7486 6.75389C40.7486 6.75389 41.3268 5.92968 42.2291 7.05077C42.2252 7.05077 41.4088 7.85546 40.7486 6.75389ZM33.0963 40.9336C32.6705 41.1328 31.6393 41.582 30.0729 42.1016C27.3229 43.0117 30.69 43.0078 30.69 43.0078C30.69 43.0078 31.6822 42.9297 33.1236 42.4844L33.0963 40.9336ZM37.5455 15.2344L37.483 18.8398C39.315 18.9922 40.8463 19.5195 41.276 20.793C42.4322 24.2187 36.3814 24.5703 31.4752 26.1992C26.3658 27.8945 26.9244 34.2812 32.9986 35.4375L32.9479 32.5351C32.8854 32.5156 32.8229 32.4922 32.7643 32.4726C32.1393 32.2266 31.5611 31.7851 31.3932 31.3516C31.2291 30.4336 32.0104 29.1094 34.5807 28.5234C39.2486 27.4531 43.19 26.7617 44.3619 24.5078C47.3346 18.7851 42.0729 15.3125 37.5455 15.2344Z" fill="#25CED1"/>
<path d="M39.026 6.15234C34.3307 6.44141 25.7017 7.55078 24.1705 12.082C22.2135 17.8828 27.8502 19.625 30.6119 19.2773C31.2174 19.2031 31.901 19.1562 32.7018 19.0078L32.6432 15.6914C28.2564 15.8633 26.7955 14.5313 28.4439 12.7031C30.5338 10.3867 35.6471 9.82812 38.8892 9.71484M37.6158 33.2266C37.4791 33.2148 37.3541 33.2031 37.2252 33.1914L37.1783 35.7734C38.5885 36.0898 38.0807 36.8672 37.1783 38.0156C37.1666 38.0312 37.151 38.0469 37.1392 38.0625L37.0924 40.6055C37.4283 40.3828 37.7642 40.1445 38.1002 39.8789C39.2603 38.957 39.526 38.5703 40.233 37.707C41.3228 36.0547 41.276 33.5273 37.6158 33.2266Z" fill="#25CED1"/>
<path d="M33.2564 11.1406L33.5611 24.6836C34.5846 24.418 35.8541 24.0742 36.6393 23.8594L36.94 10.5625C36.0416 10.6484 34.608 10.8203 33.2564 11.1406ZM35.483 29.1445C35.483 29.1445 34.2799 29.3867 33.6744 29.6328L34.026 45.207C34.026 46.0391 34.5064 46.707 35.0924 46.707C35.6783 46.707 36.1588 46.1602 36.1588 45.207L36.526 28.8984L35.483 29.1445ZM35.0338 0C33.8893 0 33.1314 0.9375 33.1314 2.08594V4.31641L33.1744 6.19531C33.8346 6.05078 35.0807 5.82422 37.0846 5.61328L37.1119 4.32031V2.08984C37.1158 0.9375 36.1783 0 35.0338 0Z" fill="#25CED1"/>
<path d="M65.6523 6.39352H68.4923V19.3535H65.6523V13.9735H59.7923V19.3535H56.9523V6.39352H59.7923V11.5735H65.6523V6.39352ZM77.1869 17.0335H83.1069V19.3535H74.3469V6.39352H83.0069V8.69351H77.1869V11.6135H82.2069L81.8869 13.8935H77.1869V17.0335ZM95.402 6.39352L100.062 19.1935V19.3535H97.042L96.002 16.2535H91.202L90.182 19.3535H87.202V19.1935L91.862 6.39352H95.402ZM91.962 13.9735H95.242L93.582 9.03351L91.962 13.9735ZM107.581 16.9135H113.461V19.3535H104.741V6.39352H107.581V16.9135ZM125.824 6.39352V8.81352H121.784V19.3535H118.944V8.81352H114.804V6.39352H125.824ZM139.207 6.39352H142.047V19.3535H139.207V13.9735H133.347V19.3535H130.507V6.39352H133.347V11.5735H139.207V6.39352ZM62.4123 39.5935C61.079 39.5935 59.9657 39.3202 59.0723 38.7735C58.179 38.2268 57.5123 37.4535 57.0723 36.4535C56.6457 35.4535 56.4323 34.2735 56.4323 32.9135C56.4323 31.3402 56.7057 30.0535 57.2523 29.0535C57.8123 28.0402 58.539 27.3068 59.4323 26.8535C60.3257 26.3868 61.3057 26.1535 62.3723 26.1535C63.1857 26.1535 63.9323 26.2535 64.6123 26.4535C65.3057 26.6535 65.9657 26.9468 66.5923 27.3335L65.7923 28.7335C64.7523 28.0802 63.639 27.7535 62.4523 27.7535C61.0657 27.7535 60.039 28.2068 59.3723 29.1135C58.719 30.0202 58.3923 31.2535 58.3923 32.8135C58.3923 34.4268 58.739 35.6935 59.4323 36.6135C60.1257 37.5335 61.1457 37.9935 62.4923 37.9935C63.1723 37.9935 63.7857 37.9068 64.3323 37.7335C64.879 37.5602 65.4257 37.3135 65.9723 36.9935L66.7123 38.3335C66.0057 38.7468 65.3123 39.0602 64.6323 39.2735C63.9657 39.4868 63.2257 39.5935 62.4123 39.5935ZM73.4772 37.7935H79.8372V39.3535H71.6372V26.3935H79.7372V27.9535H73.4772V31.9935H78.9572L78.7572 33.5135H73.4772V37.7935ZM96.117 26.3935V39.3535H94.077L88.377 30.9535L88.117 30.5735C88.0904 30.5202 88.0037 30.3935 87.857 30.1935C87.7237 29.9935 87.6037 29.8068 87.497 29.6335C87.4037 29.4602 87.317 29.2868 87.237 29.1135V39.3535H85.477V26.3935H87.417L93.277 34.9735C93.3304 35.0535 93.4437 35.2202 93.617 35.4735C93.7904 35.7135 93.937 35.9402 94.057 36.1535C94.177 36.3535 94.277 36.5468 94.357 36.7335V26.3935H96.117ZM111.943 26.3935V27.9935H107.463V39.3535H105.623V27.9935H101.123V26.3935H111.943ZM118.786 37.7935H125.146V39.3535H116.946V26.3935H125.046V27.9535H118.786V31.9935H124.266L124.066 33.5135H118.786V37.7935ZM140.406 39.2335V39.3535H138.286L134.546 34.2935H132.626V39.3535H130.786V26.3935H135.006C136.019 26.3935 136.872 26.5535 137.566 26.8735C138.272 27.1935 138.799 27.6402 139.146 28.2135C139.506 28.7868 139.686 29.4535 139.686 30.2135C139.686 30.8268 139.566 31.3935 139.326 31.9135C139.099 32.4335 138.752 32.8868 138.286 33.2735C137.819 33.6468 137.239 33.9202 136.546 34.0935L140.406 39.2335ZM132.626 32.7735H134.726C135.726 32.7735 136.479 32.5602 136.986 32.1335C137.506 31.6935 137.766 31.0802 137.766 30.2935C137.766 29.5335 137.526 28.9535 137.046 28.5535C136.579 28.1535 135.886 27.9535 134.966 27.9535H132.626V32.7735Z" fill="#00181B"/>
</svg>
